#!OML:ASF G:\JayActor3\Patient Classification 1\Patient 1\Session 6\male.ASF
:FULLY-SPECIFIED
:DEGREES
1325
root -19.5462 16.4372 5.97765 -13.5382 -74.2688 12.4562
lowerback -3.66692 -3.84227 0.775374
upperback -2.63553 -5.17672 1.83838
thorax -0.554375 -2.60213 1.2869
lowerneck 7.95082 11.7581 8.95414
upperneck -6.58261 16.1605 -7.76299
head -1.86929 8.15059 -4.15641
rclavicle 6.08281e-014 -4.77083e-015
rhumerus -43.9644 -7.68438 -68.7602
rradius 25.39
rwrist 3.43539
rhand -28.7336 -14.8044
rfingers 7.12502
rthumb -2.09447 -44.7739
lclavicle 6.08281e-014 -4.77083e-015
lhumerus -20.9287 2.68679 70.4432
lradius 54.7206
lwrist 27.7939
lhand -16.149 12.7662
lfingers 7.12502
lthumb 10.0564 42.5059
rfemur -34.0846 3.08954 25.3092
rtibia 31.4502
rfoot -27.5755 -24.3883
rtoes 2.12252
lfemur 20.4311 19.5561 -23.6243
ltibia 3.49861e-014
lfoot -11.4787 5.12705
ltoes -16.2124
1326
root -19.6316 16.436 6.00944 -13.5287 -74.6093 12.4732
lowerback -3.72685 -3.96786 0.89459
upperback -2.6345 -5.34992 1.9404
thorax -0.518339 -2.69013 1.31487
lowerneck 8.06704 11.908 9.04354
upperneck -6.76062 16.357 -8.06792
head -1.89046 8.25848 -4.26927
rclavicle 7.65321e-014 -1.43125e-014
rhumerus -44.0674 -8.29861 -67.9107
rradius 25.0379
rwrist 3.6739
rhand -28.7736 -14.932
rfingers 7.12502
rthumb -2.13306 -44.9011
lclavicle 7.65321e-014 -1.43125e-014
lhumerus -20.6616 2.52789 70.5374
lradius 54.6348
lwrist 27.433
lhand -15.8643 12.8262
lfingers 7.12502
lthumb 10.3311 42.5524
rfemur -33.8045 3.08682 25.3593
rtibia 30.3389
rfoot -27.777 -24.5083
rtoes 2.39995
lfemur 20.7404 19.392 -23.5746
ltibia 9.54166e-015
lfoot -11.4475 5.46388
ltoes -16.8608
1327
root -19.7191 16.4344 6.04034 -13.7106 -74.9491 12.704
lowerback -3.81865 -4.08547 0.967365
upperback -2.64126 -5.51186 2.02036
thorax -0.470661 -2.77207 1.34387
lowerneck 8.18081 12.0515 9.11333
upperneck -6.92516 16.5446 -8.34047
head -1.91161 8.36141 -4.36959
rclavicle -3.81667e-014 4.77083e-015
rhumerus -44.1872 -8.90805 -67.0756
rradius 24.6942
rwrist 3.93228
rhand -28.7328 -15.0931
rfingers 7.12502
rthumb -2.09367 -45.0626
lclavicle -3.81667e-014 4.77083e-015
lhumerus -20.4338 2.36434 70.6441
lradius 54.5242
lwrist 27.0539
lhand -15.6233 12.8906
lfingers 7.12502
lthumb 10.5636 42.6052
rfemur -33.5585 3.08439 25.3569
rtibia 29.4116
rfoot -28.0716 -24.692
rtoes 2.80831
lfemur 21.0435 19.2384 -23.5831
ltibia -3.18055e-014
lfoot -11.4141 5.76817
ltoes -17.3277
1328
root -19.8078 16.4323 6.06991 -14.0458 -75.2855 13.1194
lowerback -3.93321 -4.19835 0.996527
upperback -2.66615 -5.66665 2.086
thorax -0.426284 -2.8501 1.38115
lowerneck 8.28749 12.1887 9.16879
upperneck -7.05981 16.724 -8.58256
head -1.92664 8.45985 -4.45749
rclavicle -3.1408e-014 3.65764e-014
rhumerus -44.3297 -9.48642 -66.267
rradius 24.3664
rwrist 4.18194
rhand -28.6528 -15.2409
rfingers 7.12502
rthumb -2.01638 -45.2111
lclavicle -3.1408e-014 3.65764e-014
lhumerus -20.2554 2.19764 70.7651
lradius 54.3911
lwrist 26.6738
lhand -15.4422 12.974
lfingers 7.12502
lthumb 10.7382 42.6796
rfemur -33.3546 3.03091 25.3341
rtibia 28.6568
rfoot -28.4037 -24.9425
rtoes 3.29184
lfemur 21.3194 19.0912 -23.6471
ltibia 2.54444e-014
lfoot -11.3555 6.06643
ltoes -17.7828
1329
root -19.8975 16.4296 6.09832 -14.461 -75.6343 13.6438
lowerback -4.07236 -4.30601 1.00555
upperback -2.70436 -5.81448 2.14635
thorax -0.380446 -2.92458 1.42251
lowerneck 8.37268 12.321 9.21225
upperneck -7.15579 16.8968 -8.79476
head -1.93046 8.55432 -4.53187
rclavicle -1.78906e-014 1.59028e-014
rhumerus -44.4774 -10.0189 -65.4981
rradius 24.0507
rwrist 4.42849
rhand -28.5553 -15.3724
rfingers 7.12502
rthumb -1.9222 -45.3435
lclavicle -1.78906e-014 1.59028e-014
lhumerus -20.127 2.03842 70.897
lradius 54.243
lwrist 26.302
lhand -15.2948 13.0819
lfingers 7.12502
lthumb 10.8804 42.78
rfemur -33.185 2.8953 25.3342
rtibia 28.0592
rfoot -28.7443 -25.2186
rtoes 3.84795
lfemur 21.5687 18.9597 -23.7383
ltibia 5.725e-014
lfoot -11.2718 6.35308
ltoes -18.2559
1330
root -19.9874 16.4268 6.12549 -14.8902 -76.0122 14.2133
lowerback -4.23188 -4.40504 1.01301
upperback -2.75695 -5.95143 2.21105
thorax -0.337458 -2.99378 1.46809
lowerneck 8.43739 12.4532 9.24909
upperneck -7.21382 17.0695 -8.98564
head -1.92175 8.64835 -4.59579
rclavicle 3.63776e-014 -1.43125e-014
rhumerus -44.6235 -10.4882 -64.7808
rradius 23.7527
rwrist 4.65492
rhand -28.4732 -15.467
rfingers 7.12502
rthumb -1.84291 -45.4388
lclavicle 3.63776e-014 -1.43125e-014
lhumerus -20.0481 1.89606 71.0422
lradius 54.0809
lwrist 25.9474
lhand -15.1604 13.2096
lfingers 7.12502
lthumb 11.01 42.9009
rfemur -33.0412 2.67321 25.3878
rtibia 27.5896
rfoot -28.9907 -25.5153
rtoes 4.33733
lfemur 21.7804 18.8562 -23.8379
ltibia 4.45278e-014
lfoot -11.1441 6.64659
ltoes -18.8804
